# xmcd
#
# Track frame offsets: 
#        150
#        12089
#        24780
#        34410
#        50655
#        67729
#        78919
#        92218
#        104332
#        122780
#        134525
#        153254
#        170446
#        183737
#        195738
#        207313
#        222049
#        232856
#
# Disc length: 3294 seconds
#
# Revision: 0
# Processed by: cddbd v1.5.2PL0 Copyright (c) Steve Scherf et al.
# Submitted via: ExactAudioCopyFreeDBPlugin 1.0
#
DISCID=ee0cdc12
DTITLE=Gus Eyre - Salvation Songs
DYEAR=2012
DGENRE=Chrisitan Country
TTITLE0=ride the river
TTITLE1=ain't got what it took
TTITLE2=into the sun
TTITLE3=slow train to georgia
TTITLE4=please come back again
TTITLE5=bronzie's blues
TTITLE6=break the chain
TTITLE7=9lb hammer
TTITLE8=how long will the good times roll
TTITLE9=roll on, buddy
TTITLE10=celestial angels
TTITLE11=you came into my life
TTITLE12=you did that for me...!
TTITLE13=let it shine
TTITLE14=need somebody to hold on
TTITLE15=your own sweet way
TTITLE16=glory, glory, hallelujah
TTITLE17=leaning on the everlasting arms
EXTD=
EXTT0=
EXTT1=
EXTT2=
EXTT3=
EXTT4=
EXTT5=
EXTT6=
EXTT7=
EXTT8=
EXTT9=
EXTT10=
EXTT11=
EXTT12=
EXTT13=
EXTT14=
EXTT15=
EXTT16=
EXTT17=
PLAYORDER=
